<svg width="66" height="102" viewBox="0 0 66 102" fill="none" xmlns="http://www.w3.org/2000/svg">
<path d="M1 11.1357L42.991 1L65 6.35747" stroke="#6DAAE1" stroke-miterlimit="10" stroke-linecap="round" stroke-linejoin="round"/>
<path d="M42.991 1V100.62" stroke="#6DAAE1" stroke-miterlimit="10" stroke-linecap="round" stroke-linejoin="round"/>
<path d="M61.3802 22.4299L52.5476 20.8371V32.1312L61.3802 33.4344" stroke="#6DAAE1" stroke-miterlimit="10" stroke-linecap="round" stroke-linejoin="round"/>
<path d="M61.3802 43.8597L52.5476 42.5566V53.8507L61.3802 54.8643" stroke="#6DAAE1" stroke-miterlimit="10" stroke-linecap="round" stroke-linejoin="round"/>
<path d="M61.3802 64.7104L52.5476 63.2625V74.5566L61.3802 75.5701" stroke="#6DAAE1" stroke-miterlimit="10" stroke-linecap="round" stroke-linejoin="round"/>
<path d="M61.3802 87.7331L52.5476 86.2851V97.5792L61.3802 98.5928" stroke="#6DAAE1" stroke-miterlimit="10" stroke-linecap="round" stroke-linejoin="round"/>
<path d="M3.60645 22.7194L34.0137 16.638V90.0498L3.60645 92.9457V22.7194Z" stroke="#6DAAE1" stroke-miterlimit="10" stroke-linecap="round" stroke-linejoin="round"/>
<path d="M9.68774 56.7466L25.7601 54.4298L19.6787 43.8597L16.0588 50.9547L13.742 47.6244L9.68774 56.7466Z" stroke="#6DAAE1" stroke-miterlimit="10" stroke-linecap="round" stroke-linejoin="round"/>
<path d="M16.059 50.9548L13.4526 56.1674" stroke="#6DAAE1" stroke-miterlimit="10" stroke-linecap="round" stroke-linejoin="round"/>
<path d="M10.2668 65.2896L26.1944 63.1177" stroke="#6DAAE1" stroke-miterlimit="10" stroke-linecap="round" stroke-linejoin="round"/>
<path d="M13.8867 68.4751L22.4297 67.4615" stroke="#6DAAE1" stroke-miterlimit="10" stroke-linecap="round" stroke-linejoin="round"/>
</svg>
