<svg width="135" height="72" viewBox="0 0 135 72" fill="none" xmlns="http://www.w3.org/2000/svg">
<path d="M104.657 58.9921H30.1697V37.1148V29.1279V8.98688H35.5522H39.7193H99.2741H104.657V58.9921Z" stroke="#6DAAE1" stroke-miterlimit="10" stroke-linecap="round" stroke-linejoin="round"/>
<path d="M70.7993 32.2532H88.8568" stroke="#6DAAE1" stroke-miterlimit="10" stroke-linecap="round" stroke-linejoin="round"/>
<path d="M70.7993 36.594H80.6962" stroke="#6DAAE1" stroke-miterlimit="10" stroke-linecap="round" stroke-linejoin="round"/>
<path d="M45.9702 40.4139H65.0694L58.4715 27.739L53.6099 36.0732L51.3527 32.0797L45.9702 40.4139Z" stroke="#6DAAE1" stroke-miterlimit="10" stroke-linecap="round" stroke-linejoin="round"/>
<path d="M50.832 40.4139L53.6101 36.0731" stroke="#6DAAE1" stroke-miterlimit="10" stroke-linecap="round" stroke-linejoin="round"/>
<path d="M124.971 70.799V69.41C124.971 69.2363 125.318 66.6319 125.839 63.1593L126.36 60.5549C127.228 56.5614 128.617 52.2207 130.701 49.4426C128.791 47.8799 124.971 44.581 120.978 39.1985C117.852 35.205 115.422 30.6906 113.685 26.1763L112.817 23.7455C112.47 22.5301 111.949 21.3147 111.775 19.9256L111.254 17.4948C110.907 16.1058 110.734 14.7167 110.56 13.5013L110.386 10.8969C110.386 10.2024 110.386 9.50787 110.213 8.63972V4.9935V1.34729" stroke="#6DAAE1" stroke-miterlimit="10" stroke-linecap="round" stroke-linejoin="round"/>
<path d="M134 1.17358V70.7989" stroke="#6DAAE1" stroke-miterlimit="10" stroke-linecap="round" stroke-linejoin="round"/>
<path d="M1 70.6253V1" stroke="#6DAAE1" stroke-miterlimit="10" stroke-linecap="round" stroke-linejoin="round"/>
<path d="M24.9607 1.52087V4.81983V8.46604C24.9607 9.16056 24.9607 9.85508 24.7871 10.7232L24.6134 13.3277C24.4398 14.7167 24.2662 16.1057 23.9189 17.3211L23.398 19.7519C23.0508 20.9673 22.7035 22.1828 22.3563 23.5718L21.4881 26.0026C19.7518 30.517 17.321 34.8577 14.1957 39.0248C10.2022 44.4073 6.20875 47.8799 4.29883 49.2689C6.38238 52.2206 7.77141 56.5613 8.63956 60.5548L9.16045 63.1593C9.85496 66.4582 10.0286 69.0627 10.0286 69.4099V70.7989" stroke="#6DAAE1" stroke-miterlimit="10" stroke-linecap="round" stroke-linejoin="round"/>
<path d="M4.29896 49.2689H1" stroke="#6DAAE1" stroke-miterlimit="10" stroke-linecap="round" stroke-linejoin="round"/>
<path d="M130.701 49.6162H134" stroke="#6DAAE1" stroke-miterlimit="10" stroke-linecap="round" stroke-linejoin="round"/>
</svg>
