<svg width="26" height="35" viewBox="0 0 26 35" fill="none" xmlns="http://www.w3.org/2000/svg">
<path d="M26 34.67H0V0H16.5482L26 10.0231V34.67ZM2.00463 32.6654H23.9954V10.845L15.6762 2.00463H2.00463V32.6654Z" fill="#D24A43"/>
<path d="M24.9998 11.2259H15.1069V1.00229H17.1116V9.22126H24.9998V11.2259Z" fill="#D24A43"/>
<path d="M13.0013 4.61066H4.00049V6.61528H13.0013V4.61066Z" fill="#D24A43"/>
<path d="M13.0013 9.77252H4.00049V11.7771H13.0013V9.77252Z" fill="#D24A43"/>
<path d="M22.0822 14.2729H4.00049V16.2776H22.0822V14.2729Z" fill="#D24A43"/>
<path d="M22.0822 18.7733H4.00049V20.778H22.0822V18.7733Z" fill="#D24A43"/>
<path d="M22.0822 23.8551H4.00049V25.8597H22.0822V23.8551Z" fill="#D24A43"/>
<path d="M22.0822 28.3554H4.00049V30.36H22.0822V28.3554Z" fill="#D24A43"/>
</svg>
