<svg width="34" height="25" viewBox="0 0 34 25" fill="none" xmlns="http://www.w3.org/2000/svg">
<path d="M31.4873 21.8978H2.5127C1.84629 21.8978 1.20718 21.6331 0.735953 21.1619C0.26473 20.6906 0 20.0515 0 19.3851L0 2.5127C0 1.84629 0.26473 1.20718 0.735953 0.735953C1.20718 0.26473 1.84629 0 2.5127 0L31.4873 0C32.1537 0 32.7928 0.26473 33.264 0.735953C33.7353 1.20718 34 1.84629 34 2.5127V19.3851C34 20.0515 33.7353 20.6906 33.264 21.1619C32.7928 21.6331 32.1537 21.8978 31.4873 21.8978V21.8978ZM2.5127 1.96305C2.36692 1.96305 2.22712 2.02096 2.12404 2.12404C2.02096 2.22712 1.96305 2.36692 1.96305 2.5127V19.3851C1.96305 19.5309 2.02096 19.6707 2.12404 19.7738C2.22712 19.8768 2.36692 19.9348 2.5127 19.9348H31.4873C31.6331 19.9348 31.7729 19.8768 31.876 19.7738C31.979 19.6707 32.037 19.5309 32.037 19.3851V2.5127C32.037 2.36692 31.979 2.22712 31.876 2.12404C31.7729 2.02096 31.6331 1.96305 31.4873 1.96305H2.5127Z" fill="#74B77B"/>
<path d="M25.8542 24.97H8.14747C7.50693 24.93 6.90573 24.6473 6.46629 24.1795C6.02685 23.7118 5.78223 23.0941 5.78223 22.4524C5.78223 21.8106 6.02685 21.1929 6.46629 20.7252C6.90573 20.2574 7.50693 19.9748 8.14747 19.9347H25.8149C26.1587 19.9133 26.5033 19.9624 26.8274 20.0793C27.1515 20.1961 27.4483 20.378 27.6994 20.6139C27.9505 20.8498 28.1506 21.1346 28.2873 21.4508C28.4241 21.767 28.4947 22.1078 28.4947 22.4524C28.4947 22.7969 28.4241 23.1377 28.2873 23.4539C28.1506 23.7701 27.9505 24.0549 27.6994 24.2908C27.4483 24.5267 27.1515 24.7087 26.8274 24.8255C26.5033 24.9423 26.1587 24.9914 25.8149 24.97H25.8542ZM8.18673 21.8978C8.05235 21.9157 7.92904 21.9818 7.83974 22.0838C7.75043 22.1858 7.7012 22.3168 7.7012 22.4524C7.7012 22.5879 7.75043 22.7189 7.83974 22.8209C7.92904 22.9229 8.05235 22.989 8.18673 23.0069H25.8542C25.9332 23.0175 26.0135 23.011 26.0899 22.9879C26.1662 22.9649 26.2367 22.9258 26.2966 22.8733C26.3566 22.8208 26.4047 22.7561 26.4376 22.6835C26.4705 22.6109 26.4876 22.5321 26.4876 22.4524C26.4876 22.3726 26.4705 22.2938 26.4376 22.2213C26.4047 22.1487 26.3566 22.0839 26.2966 22.0314C26.2367 21.9789 26.1662 21.9398 26.0899 21.9168C26.0135 21.8937 25.9332 21.8873 25.8542 21.8978H8.18673Z" fill="#74B77B"/>
</svg>
