<svg width="32" height="29" viewBox="0 0 32 29" fill="none" xmlns="http://www.w3.org/2000/svg">
<path d="M29.4499 28.2985H2.54015C1.86646 28.2985 1.22037 28.0309 0.743994 27.5545C0.267623 27.0781 0 26.432 0 25.7584L0 7.39184C-5.10681e-06 6.71724 0.2673 6.07011 0.743389 5.59217C1.21948 5.11422 1.86555 4.84439 2.54015 4.84177H29.4499C30.1262 4.84177 30.7749 5.11043 31.2531 5.58867C31.7313 6.0669 32 6.71552 32 7.39184V25.7584C31.9974 26.433 31.7275 27.079 31.2496 27.5551C30.7717 28.0312 30.1245 28.2985 29.4499 28.2985ZM2.54015 6.82626C2.46634 6.82625 2.39327 6.84095 2.3252 6.86949C2.25713 6.89803 2.19542 6.93985 2.14369 6.9925C2.09197 7.04516 2.05124 7.10759 2.02391 7.17615C1.99658 7.24472 1.98318 7.31804 1.9845 7.39184V25.7584C1.9845 25.9057 2.04304 26.0471 2.14724 26.1513C2.25145 26.2555 2.39279 26.314 2.54015 26.314H29.4499C29.5237 26.3153 29.597 26.3019 29.6656 26.2746C29.7342 26.2473 29.7966 26.2065 29.8493 26.1548C29.9019 26.1031 29.9437 26.0414 29.9723 25.9733C30.0008 25.9052 30.0155 25.8322 30.0155 25.7584V7.39184C30.0168 7.3172 30.0031 7.24305 29.9752 7.17382C29.9472 7.1046 29.9056 7.04171 29.8528 6.98892C29.8001 6.93613 29.7372 6.89452 29.6679 6.86657C29.5987 6.83863 29.5246 6.82492 29.4499 6.82626H2.54015Z" fill="#5E9ADC"/>
<path d="M31.0065 9.3764H1.7749V11.3609H31.0065V9.3764Z" fill="#5E9ADC"/>
<path d="M15.876 6.89578C14.3182 6.89578 12.3634 6.89578 9.92249 6.89578H8.77148L8.93024 5.68523C9.19238 4.11609 9.99586 2.68832 11.2011 1.64993C12.4064 0.611534 13.9373 0.0281102 15.528 0.000989885C17.1187 -0.0261304 18.6686 0.504766 19.9085 1.50147C21.1485 2.49817 22.0002 3.89772 22.3157 5.45702L22.4149 5.92337L22.0974 6.31035C21.8295 6.64771 21.631 6.89578 15.876 6.89578ZM11.2323 4.91128C14.7547 4.96089 18.3368 4.91128 20.0434 4.91128C19.6701 4.05774 19.059 3.32972 18.283 2.81418C17.5071 2.29863 16.5991 2.01737 15.6676 2.00399C14.7323 2.00009 13.8163 2.26938 13.0319 2.77879C12.2475 3.2882 11.6289 4.01557 11.2521 4.87159L11.2323 4.91128Z" fill="#5E9ADC"/>
<path d="M15.6268 15.4093C14.2872 15.4079 12.9889 14.9455 11.95 14.0999C10.911 13.2543 10.1947 12.0769 9.92133 10.7656L9.83203 10.2992L10.1396 9.92216C10.4968 9.48557 10.6854 9.26728 20.3697 9.41611H21.5306L21.3322 10.5572C21.111 11.9112 20.4158 13.1424 19.3707 14.0312C18.3256 14.92 16.9987 15.4084 15.6268 15.4093V15.4093ZM12.263 11.4403C12.5899 12.0524 13.0768 12.5642 13.6719 12.921C14.267 13.2779 14.9478 13.4663 15.6416 13.4663C16.3355 13.4663 17.0163 13.2779 17.6114 12.921C18.2065 12.5642 18.6934 12.0524 19.0202 11.4403C16.361 11.351 13.7018 11.351 12.263 11.4105V11.4403Z" fill="#5E9ADC"/>
</svg>
