<svg width="30" height="39" viewBox="0 0 30 39" fill="none" xmlns="http://www.w3.org/2000/svg">
<path fill-rule="evenodd" clip-rule="evenodd" d="M0 14.5495C0 6.52626 6.52626 0 14.5495 0C22.5727 0 29.099 6.52626 29.099 14.5495C29.099 26.499 15.9939 38.1727 15.4424 38.6586C15.1798 38.8818 14.8646 39 14.5495 39C14.2343 39 13.9061 38.8818 13.6566 38.6586C13.0919 38.1727 0 26.499 0 14.5495ZM15 20C18.3137 20 21 17.3137 21 14C21 10.6863 18.3137 8 15 8C11.6863 8 9 10.6863 9 14C9 17.3137 11.6863 20 15 20Z" fill="#6DAAE1"/>
</svg>
