<svg width="60" height="61" viewBox="0 0 60 61" fill="none" xmlns="http://www.w3.org/2000/svg">
<path d="M28.5333 0.0349814C12.5582 0.795622 -0.048323 14.0998 0.000139255 30.0929C0.0148949 34.964 1.19087 39.5617 3.26534 43.6241L0.0802829 59.0848C-0.0920115 59.9211 0.662264 60.6534 1.49307 60.4566L16.6427 56.8674C20.5348 58.8062 24.9066 59.926 29.5334 59.9966C45.8614 60.246 59.4761 47.2811 59.985 30.9591C60.5306 13.4631 46.0905 -0.801174 28.5333 0.0349814ZM46.61 46.6101C42.1733 51.0468 36.2744 53.4902 30 53.4902C26.3262 53.4902 22.8088 52.6659 19.5453 51.0403L17.4356 49.9893L8.1473 52.19L10.1024 42.699L9.06302 40.6636C7.36887 37.3457 6.50986 33.7579 6.50986 30C6.50986 23.7255 8.95322 17.8267 13.3899 13.3899C17.787 8.99284 23.7821 6.50969 30.0005 6.50969C36.2748 6.50983 42.1735 8.9532 46.6102 13.3897C51.0469 17.8264 53.4902 23.7252 53.4904 29.9996C53.4902 36.2181 51.0071 42.2132 46.61 46.6101Z" fill="#7AD06D"/>
<path d="M44.5596 36.506L38.7486 34.8374C37.9846 34.6181 37.1619 34.8348 36.6052 35.402L35.1842 36.8498C34.585 37.4603 33.6758 37.6565 32.8827 37.3356C30.1339 36.2231 24.3514 31.0818 22.8746 28.5101C22.4486 27.7683 22.5191 26.8408 23.0422 26.164L24.2828 24.5589C24.7689 23.9301 24.8714 23.0855 24.55 22.3586L22.1052 16.8291C21.5196 15.5047 19.8272 15.1192 18.7215 16.0543C17.0997 17.426 15.1754 19.5104 14.9414 21.8197C14.529 25.8911 16.2751 31.0235 22.878 37.1862C30.5061 44.3058 36.6146 45.2464 40.5919 44.2829C42.8478 43.7365 44.6506 41.546 45.7883 39.7525C46.564 38.5297 45.9515 36.9057 44.5596 36.506Z" fill="#7AD06D"/>
</svg>
