<svg width="22" height="25" viewBox="0 0 22 25" fill="none" xmlns="http://www.w3.org/2000/svg">
<path d="M4.38546 20.307C3.51313 20.3006 2.6622 20.0361 1.93997 19.5468C1.21773 19.0575 0.656524 18.3654 0.327097 17.5576C-0.00232963 16.7498 -0.0852274 15.8626 0.088855 15.0078C0.262937 14.153 0.686206 13.3688 1.3053 12.7542C1.92439 12.1396 2.71159 11.7221 3.56765 11.5542C4.42371 11.3863 5.3103 11.4757 6.11566 11.811C6.92101 12.1463 7.60907 12.7125 8.09308 13.4383C8.57709 14.1641 8.8354 15.0169 8.83542 15.8892C8.83437 16.4718 8.71831 17.0484 8.49391 17.586C8.26951 18.1236 7.94118 18.6117 7.52775 19.0221C7.11432 19.4325 6.62393 19.7573 6.0847 19.9778C5.54547 20.1983 4.96802 20.3101 4.38546 20.307V20.307ZM4.38546 13.0516C3.83341 13.058 3.2955 13.2271 2.83913 13.5378C2.38276 13.8485 2.0282 14.2869 1.81988 14.7982C1.61155 15.3095 1.55872 15.8709 1.66799 16.4121C1.77726 16.9532 2.04379 17.4501 2.43418 17.8405C2.82457 18.2309 3.32147 18.4974 3.86264 18.6067C4.40381 18.716 4.9652 18.6632 5.47648 18.4548C5.98776 18.2465 6.42621 17.8919 6.73691 17.4356C7.0476 16.9792 7.21673 16.4413 7.22312 15.8892C7.22314 15.5181 7.14952 15.1506 7.00653 14.8082C6.86353 14.4657 6.654 14.155 6.39006 13.894C6.12613 13.6331 5.81305 13.4271 5.46895 13.2881C5.12485 13.149 4.75658 13.0796 4.38546 13.0838V13.0516Z" fill="#A6A6A6"/>
<path d="M21.9999 22.7093H10.5606V21.097H20.3876V7.23118L14.4624 1.6123H5.19165V9.26268H3.57935V0H15.0992L21.9999 6.53789V22.7093Z" fill="#A6A6A6"/>
<path d="M12.3018 4.89334H7.35205V6.50564H12.3018V4.89334Z" fill="#A6A6A6"/>
<path d="M17.8159 9.89957H8.53711V11.5119H17.8159V9.89957Z" fill="#A6A6A6"/>
<path d="M17.8156 14.6801H11.0681V16.2924H17.8156V14.6801Z" fill="#A6A6A6"/>
<path d="M21.1934 7.69068H13.9138V0.806152H15.5261V6.07838H21.1934V7.69068Z" fill="#A6A6A6"/>
<path d="M7.00554 24.2652C6.79876 24.263 6.59606 24.2075 6.41705 24.104L4.15176 22.8303L2.02352 24.0718C1.81693 24.1909 1.57953 24.2459 1.34158 24.2297C1.10363 24.2134 0.875894 24.1267 0.687397 23.9806C0.498901 23.8345 0.358174 23.6355 0.283147 23.4091C0.20812 23.1828 0.20219 22.9391 0.266112 22.7094L1.45115 18.5416L2.99896 18.9849L2.09608 22.1612L3.41816 21.355C3.63953 21.23 3.88946 21.1643 4.1437 21.1643C4.39794 21.1643 4.64787 21.23 4.86924 21.355L6.34449 22.1612L5.44966 18.9366L7.00554 18.5416L8.15833 22.7174C8.22438 22.9453 8.2205 23.1878 8.14719 23.4134C8.07389 23.6391 7.93455 23.8375 7.74719 23.9831C7.53908 24.1584 7.27758 24.2579 7.00554 24.2652Z" fill="#A6A6A6"/>
</svg>
