<svg width="60" height="60" viewBox="0 0 60 60" fill="none" xmlns="http://www.w3.org/2000/svg">
<path d="M29.9996 59.9993C46.568 59.9993 59.9993 46.568 59.9993 29.9996C59.9993 13.4313 46.568 0 29.9996 0C13.4313 0 0 13.4313 0 29.9996C0 46.568 13.4313 59.9993 29.9996 59.9993Z" fill="#41B4E6"/>
<path d="M60 30C60 29.269 59.9725 28.5447 59.9212 27.8267L47.4877 15.3934L12.5124 29.1511L25.8941 42.533L26.0697 43.1649L26.2969 42.9358L26.2978 42.9367L26.0697 43.1649L40.8724 57.9677C52.0662 53.613 60 42.7336 60 30Z" fill="#0091C8"/>
<path d="M27.0865 34.3708L40.644 44.6068L47.4876 15.3934L12.5122 29.1511L23.1548 32.6762L42.5778 19.6478L27.0865 34.3708Z" fill="white"/>
<path d="M23.1548 32.6761L26.0697 43.1649L27.0865 34.3707L42.5779 19.6477L23.1548 32.6761Z" fill="#D2D2D7"/>
<path d="M31.4927 37.6974L26.0696 43.1649L27.0865 34.3707L31.4927 37.6974Z" fill="#B9B9BE"/>
</svg>
