<svg width="98" height="100" viewBox="0 0 98 100" fill="none" xmlns="http://www.w3.org/2000/svg">
<path d="M97 1H1V60.8283H97V1Z" stroke="#6DAAE1" stroke-miterlimit="10" stroke-linecap="round" stroke-linejoin="round"/>
<path d="M30.914 88.4531C30.914 88.911 30.4561 89.3688 29.9982 89.3688H26.9458H17.4831C17.3305 89.3688 17.0253 89.3688 16.8726 89.3688C14.5833 89.0636 12.5992 87.2321 12.4466 84.7901L11.2256 70.1383C11.2256 69.8331 11.2256 69.5278 11.5308 69.3752C11.6835 69.2226 11.9887 69.0699 12.2939 69.0699H13.2097C14.4307 69.0699 15.499 69.9857 15.6517 71.2067L16.5674 81.7377C16.72 83.7218 18.2463 85.0954 20.2304 85.0954H28.3194C29.8456 85.0954 31.0666 86.3164 31.0666 87.8426V88.4531H30.914Z" stroke="#6DAAE1" stroke-miterlimit="10" stroke-linecap="round" stroke-linejoin="round"/>
<path d="M18.3992 89.5215L14.8889 98.6789" stroke="#6DAAE1" stroke-miterlimit="10" stroke-linecap="round" stroke-linejoin="round"/>
<path d="M26.488 89.5215L29.9984 98.6789" stroke="#6DAAE1" stroke-miterlimit="10" stroke-linecap="round" stroke-linejoin="round"/>
<path d="M16.5674 94.1002H28.3194" stroke="#6DAAE1" stroke-miterlimit="10" stroke-linecap="round" stroke-linejoin="round"/>
<path d="M64.949 88.4531V87.9952C64.949 86.469 66.17 85.248 67.6962 85.248H75.7852C77.7693 85.248 79.2956 83.8744 79.4482 81.8903L80.3639 71.3593C80.5165 70.1383 81.5849 69.2226 82.8059 69.2226H83.7216C84.0269 69.2226 84.3321 69.3752 84.4847 69.5278C84.6374 69.6805 84.79 69.9857 84.79 70.291L83.569 84.9428C83.4164 87.3848 81.4323 89.2162 79.1429 89.5215C78.9903 89.5215 78.6851 89.5215 78.5324 89.5215H68.9172H65.8647C65.4068 89.3689 64.949 89.0636 64.949 88.4531Z" stroke="#6DAAE1" stroke-miterlimit="10" stroke-linecap="round" stroke-linejoin="round"/>
<path d="M77.4644 89.5215L80.9747 98.6789" stroke="#6DAAE1" stroke-miterlimit="10" stroke-linecap="round" stroke-linejoin="round"/>
<path d="M69.3751 89.5215L65.8647 98.6789" stroke="#6DAAE1" stroke-miterlimit="10" stroke-linecap="round" stroke-linejoin="round"/>
<path d="M79.2959 94.1002H67.5439" stroke="#6DAAE1" stroke-miterlimit="10" stroke-linecap="round" stroke-linejoin="round"/>
<path d="M64.0333 75.0223H29.9983" stroke="#6DAAE1" stroke-miterlimit="10" stroke-linecap="round" stroke-linejoin="round"/>
<path d="M46.9397 75.0223V98.6789" stroke="#6DAAE1" stroke-miterlimit="10" stroke-linecap="round" stroke-linejoin="round"/>
<path d="M53.197 28.6248H76.0905" stroke="#6DAAE1" stroke-miterlimit="10" stroke-linecap="round" stroke-linejoin="round"/>
<path d="M53.197 34.2719H65.7121" stroke="#6DAAE1" stroke-miterlimit="10" stroke-linecap="round" stroke-linejoin="round"/>
<path d="M21.9094 38.8506H45.8713L37.6296 22.9778L31.5247 33.5088L28.7775 28.4722L21.9094 38.8506Z" stroke="#6DAAE1" stroke-miterlimit="10" stroke-linecap="round" stroke-linejoin="round"/>
<path d="M28.167 38.8505L31.5247 33.5087" stroke="#6DAAE1" stroke-miterlimit="10" stroke-linecap="round" stroke-linejoin="round"/>
</svg>
