<svg width="123" height="100" viewBox="0 0 123 100" fill="none" xmlns="http://www.w3.org/2000/svg">
<path d="M122 26.3853H54.479V68.526H122V26.3853Z" stroke="#6DAAE1" stroke-miterlimit="10" stroke-linecap="round" stroke-linejoin="round"/>
<path d="M15.2114 14.573L25.2677 23.8312C25.2677 23.8312 27.8217 26.2256 28.3006 31.3335" stroke="#6DAAE1" stroke-miterlimit="10" stroke-linecap="round" stroke-linejoin="round"/>
<path d="M88.1597 68.3663V98.216" stroke="#6DAAE1" stroke-miterlimit="10" stroke-linecap="round" stroke-linejoin="round"/>
<path d="M84.3289 98.2161H92.3101" stroke="#6DAAE1" stroke-miterlimit="10" stroke-linecap="round" stroke-linejoin="round"/>
<path d="M24.3101 98.5352H32.1316" stroke="#6DAAE1" stroke-miterlimit="10" stroke-linecap="round" stroke-linejoin="round"/>
<path d="M10.9017 15.0519L1.80309 6.43218C0.845341 5.47444 0.685717 3.8782 1.64346 2.92045L2.76083 1.80309C3.71857 0.845341 5.31481 0.685717 6.27256 1.64346L15.3711 10.2632C16.3289 11.2209 16.4885 12.8171 15.5308 13.7749L14.573 15.0519C13.6153 16.0096 12.019 16.0096 10.9017 15.0519Z" stroke="#6DAAE1" stroke-miterlimit="10" stroke-linecap="round" stroke-linejoin="round"/>
<path d="M41.2303 14.573L31.174 23.8312C31.174 23.8312 28.62 26.2256 28.1411 31.3335V98.5352" stroke="#6DAAE1" stroke-miterlimit="10" stroke-linecap="round" stroke-linejoin="round"/>
<path d="M45.5401 15.0519L54.6387 6.43218C55.5964 5.47444 55.7561 3.8782 54.7983 2.92045L53.681 1.80309C52.7232 0.845341 51.127 0.685717 50.1692 1.64346L41.0707 10.2632C40.1129 11.2209 39.9533 12.8171 40.911 13.7749L41.8688 14.8923C42.8265 16.0096 44.4228 16.0096 45.5401 15.0519Z" stroke="#6DAAE1" stroke-miterlimit="10" stroke-linecap="round" stroke-linejoin="round"/>
<path d="M92.3101 44.4227H110.028" stroke="#6DAAE1" stroke-miterlimit="10" stroke-linecap="round" stroke-linejoin="round"/>
<path d="M92.3101 48.8922H102.047" stroke="#6DAAE1" stroke-miterlimit="10" stroke-linecap="round" stroke-linejoin="round"/>
<path d="M68.0471 52.4039H86.7231L80.1785 40.1129L75.5495 48.2537L73.3147 44.4227L68.0471 52.4039Z" stroke="#6DAAE1" stroke-miterlimit="10" stroke-linecap="round" stroke-linejoin="round"/>
<path d="M72.8359 52.4039L75.5495 48.2537" stroke="#6DAAE1" stroke-miterlimit="10" stroke-linecap="round" stroke-linejoin="round"/>
</svg>
