<svg width="34" height="35" viewBox="0 0 34 35" fill="none" xmlns="http://www.w3.org/2000/svg">
<path d="M31.4873 34.2159H2.5127C1.84539 34.2133 1.2063 33.9464 0.735355 33.4736C0.264412 33.0008 -5.05162e-06 32.3607 0 31.6934V2.72861C0 2.0622 0.26473 1.42309 0.735953 0.951865C1.20718 0.480642 1.84629 0.215912 2.5127 0.215912H20.6611V2.17896H2.5127C2.36692 2.17896 2.22712 2.23687 2.12404 2.33995C2.02096 2.44303 1.96305 2.58284 1.96305 2.72861V31.6934C1.96174 31.7664 1.975 31.8389 2.00204 31.9068C2.02908 31.9746 2.06936 32.0363 2.12053 32.0884C2.1717 32.1405 2.23273 32.1819 2.30007 32.2101C2.3674 32.2383 2.43969 32.2529 2.5127 32.2529H31.4873C31.5603 32.2529 31.6326 32.2383 31.6999 32.2101C31.7673 32.1819 31.8283 32.1405 31.8795 32.0884C31.9306 32.0363 31.9709 31.9746 31.998 31.9068C32.025 31.8389 32.0383 31.7664 32.037 31.6934V12.1512H34V31.6934C34 32.3607 33.7356 33.0008 33.2646 33.4736C32.7937 33.9464 32.1546 34.2133 31.4873 34.2159V34.2159Z" fill="#E18C44"/>
<path d="M19.7678 20.612L12.7598 13.5352L26.2754 0L33.3129 7.03753L19.7678 20.612ZM15.508 13.5352L19.7678 17.8048L30.5646 7.00808L26.2754 2.77771L15.508 13.5352Z" fill="#E18C44"/>
<path d="M9.71749 24.9897H9.59971C9.43215 24.9897 9.26622 24.9567 9.11142 24.8926C8.95661 24.8285 8.81594 24.7345 8.69746 24.616C8.57897 24.4975 8.48498 24.3569 8.42086 24.202C8.35674 24.0472 8.32373 23.8813 8.32373 23.7138V23.4684L10.1592 16.3523C10.1933 16.1345 10.2837 15.9294 10.4214 15.7572C10.5591 15.5851 10.7394 15.4519 10.9444 15.3708C11.1756 15.27 11.4321 15.2424 11.6794 15.2915C11.9268 15.3406 12.1532 15.4642 12.3284 15.6456L17.6678 20.9557C17.8493 21.1308 17.9729 21.3572 18.022 21.6046C18.0711 21.852 18.0434 22.1084 17.9427 22.3396C17.8616 22.5446 17.7284 22.7249 17.5562 22.8626C17.3841 23.0003 17.1789 23.0907 16.9611 23.1248L9.71749 24.9897ZM11.8278 17.8639L10.5714 22.7715L15.479 21.5151L11.8278 17.8639Z" fill="#E18C44"/>
</svg>
