<svg width="47" height="38" viewBox="0 0 47 38" fill="none" xmlns="http://www.w3.org/2000/svg">
<mask id="mask0" mask-type="alpha" maskUnits="userSpaceOnUse" x="0" y="0" width="47" height="38">
<rect width="47" height="38" fill="#C4C4C4"/>
</mask>
<g mask="url(#mask0)">
<path d="M0.704476 29.2277C0.634016 29.2517 0.565548 29.2752 0.5 29.2978V3.57293C0.5 2.62136 0.8592 1.74852 1.56275 1.26823C1.86997 1.0585 2.17727 0.886319 2.44696 0.794436C3.0394 0.592593 3.52655 0.5 4 0.5C4.47345 0.5 4.9606 0.592593 5.55304 0.794436C5.82273 0.886319 6.13003 1.0585 6.43725 1.26823C7.1408 1.74852 7.5 2.62136 7.5 3.57293V28.44H4.82283H4.81416L4.8055 28.4403L4.82283 28.94L4.80542 28.4403L4.8053 28.4403L4.80495 28.4404L4.80375 28.4404L4.79941 28.4406L4.78326 28.4412L4.72284 28.4436C4.67077 28.4458 4.59596 28.4492 4.50405 28.454C4.32045 28.4636 4.06744 28.4789 3.79032 28.5014C3.25508 28.545 2.56717 28.6201 2.13803 28.7528C1.76122 28.8693 1.18325 29.0639 0.704476 29.2277Z" fill="#5E9ADC" stroke="#5E9ADC"/>
<path d="M46.2955 8.77235C46.366 8.74825 46.4345 8.72478 46.5 8.70225L46.5 34.4271C46.5 35.3786 46.1408 36.2515 45.4373 36.7318C45.13 36.9415 44.8227 37.1137 44.553 37.2056C43.9606 37.4074 43.4735 37.5 43 37.5C42.5265 37.5 42.0394 37.4074 41.447 37.2056C41.1773 37.1137 40.87 36.9415 40.5627 36.7318C39.8592 36.2515 39.5 35.3786 39.5 34.4271V9.55996H42.1772H42.1858L42.1945 9.55966L42.1772 9.05996L42.1946 9.55965L42.1947 9.55965L42.1951 9.55964L42.1963 9.5596L42.2006 9.55944L42.2167 9.55883L42.2772 9.55638C42.3292 9.55417 42.404 9.55076 42.496 9.54596C42.6796 9.53637 42.9326 9.52115 43.2097 9.4986C43.7449 9.45505 44.4328 9.37987 44.862 9.2472C45.2388 9.13071 45.8168 8.93606 46.2955 8.77235Z" fill="#68AC64" stroke="#68AC64"/>
<path d="M8.96393 1.31354C8.84445 1.01624 8.629 0.737335 8.40185 0.5L43.1505 0.5C43.9359 0.5 44.6706 0.748804 45.181 1.26C45.5879 1.66748 45.9596 2.11399 46.1253 2.4882C46.3853 3.07523 46.5 3.54772 46.5 4C46.5 4.45228 46.3853 4.92477 46.1253 5.5118C45.9596 5.88601 45.5879 6.33252 45.181 6.74C44.6706 7.2512 43.9359 7.5 43.1505 7.5L9.50032 7.5L9.5 3.49996L9.49999 3.45993L9.49362 3.42041L9 3.5L9.49361 3.42032L9.49359 3.42021L9.49354 3.41991L9.49339 3.41895L9.49285 3.41568L9.4909 3.40384L9.48353 3.36009C9.4771 3.32246 9.46766 3.26839 9.45543 3.20141C9.431 3.06762 9.39527 2.88142 9.34993 2.6712C9.26102 2.25895 9.1289 1.72402 8.96393 1.31354Z" fill="#C13333" stroke="#C13333"/>
<path d="M37.9996 33.5L37.5017 33.545L37.5017 33.5451L37.5017 33.5455L37.5018 33.5469L37.5023 33.5522L37.5042 33.5721L37.5113 33.647C37.5176 33.7116 37.5269 33.8044 37.5389 33.9178C37.563 34.1445 37.5983 34.4551 37.6431 34.7897C37.729 35.4318 37.86 36.2484 38.0361 36.6865C38.1492 36.9679 38.2489 37.2553 38.3282 37.5H3.84949C3.06407 37.5 2.32943 37.2512 1.81897 36.74C1.41207 36.3325 1.0404 35.886 0.874661 35.5118C0.614658 34.9248 0.5 34.4523 0.5 34C0.5 33.5477 0.614658 33.0752 0.874661 32.4882C1.0404 32.114 1.41207 31.6675 1.81897 31.26C2.32943 30.7488 3.06408 30.5 3.8495 30.5H37.4996V33.5V33.5225L37.5017 33.5449L37.9996 33.5Z" fill="#D57730" stroke="#D57730"/>
</g>
</svg>
